# xmcd
#
# Track frame offsets:
# 150
# 15197
# 29600
# 47712
# 62498
# 75063
# 87210
# 105627
# 121937
# 133579
# 149000
# 163446
# 179764
# 192120
# 206688
# 220290
# 236861
# 252796
#
# Disc length: 3605 seconds
#
#
# Revision: 0
# Processed by: cddbd v1.5PL3 Copyright (c) Steve Scherf et al.
# Submitted via: FreeRIP 2.40 
#
DISCID=fd0e1312
DTITLE=Various Artist - Violin Concertons
DYEAR=2004
DGENRE=Instrumental
TTITLE0=Green Green Grass of Home
TTITLE1=Unchaine Melody
TTITLE2=How Can I Tell Her
TTITLE3=Last Waltz
TTITLE4=I Don't Like to Sleep Alone
TTITLE5=Love Me Tender
TTITLE6=Kiss Me Goodbye
TTITLE7=I Went to Your Wedding
TTITLE8=Speak Softly Love
TTITLE9=Killing Me Softly With His Song
TTITLE10=And I Love You So
TTITLE11=I Really Don't Want to Know
TTITLE12=Changing Partner
TTITLE13=The End of the World
TTITLE14=500 Miles
TTITLE15=Morning Has Broken
TTITLE16=Yesterday Once More
TTITLE17=Feeling
EXTD=
EXTT0=
EXTT1=
EXTT2=
EXTT3=
EXTT4=
EXTT5=
EXTT6=
EXTT7=
EXTT8=
EXTT9=
EXTT10=
EXTT11=
EXTT12=
EXTT13=
EXTT14=
EXTT15=
EXTT16=
EXTT17=
PLAYORDER=
